<?xml version="1.0" encoding="windows-1252"?>
<!-- Generator: Adobe Illustrator 19.0.0, SVG Export Plug-In . SVG Version: 6.00 Build 0)  -->
<svg version="1.1" id="Layer_1" xmlns="http://www.w3.org/2000/svg" xmlns:xlink="http://www.w3.org/1999/xlink" x="0px" y="0px" viewBox="0 0 512 512" style="enable-background:new 0 0 512 512;" xml:space="preserve">
<path style="fill:#FFC107;" d="M256,17.749c-117.248,0-212.651,95.403-212.651,212.651S138.752,443.051,256,443.051  S468.651,347.648,468.651,230.4S373.248,17.749,256,17.749z M256,407.637c-97.707,0-177.237-79.531-177.237-177.237  S158.293,53.163,256,53.163S433.237,132.693,433.237,230.4S353.707,407.637,256,407.637z"/>
<path d="M256,0C128.939,0,25.6,103.339,25.6,230.4c0,2.56,0,68.267,0,68.267C25.6,416.341,128.939,512,256,512  s230.4-95.659,230.4-213.333c0,0,0-65.707,0-68.267C486.4,103.339,383.061,0,256,0z M76.8,375.467v29.525  c-17.493-24.832-29.013-53.504-32.768-84.309c8.448,19.712,19.541,37.973,32.853,54.443C76.885,375.211,76.8,375.296,76.8,375.467z   M119.467,449.365c-9.216-7.168-17.749-14.933-25.6-23.381v-32.085c8.021,7.936,16.555,15.275,25.6,21.931V449.365z M162.133,474.88  c-9.131-4.181-17.835-8.875-26.197-14.08h0.597v-33.451c8.192,4.949,16.811,9.387,25.6,13.397V474.88z M204.8,489.216  c-8.789-2.048-17.323-4.523-25.6-7.509v-34.133c8.363,2.987,16.896,5.461,25.6,7.424V489.216z M247.467,494.763  c-8.704-0.341-17.237-1.109-25.6-2.389V458.24c8.363,1.28,16.981,2.048,25.6,2.304V494.763z M290.133,492.373  c-8.363,1.28-16.896,2.048-25.6,2.389v-34.219c8.619-0.256,17.237-1.024,25.6-2.304V492.373z M332.8,481.707  c-8.277,2.987-16.811,5.461-25.6,7.509v-34.219c8.704-1.963,17.237-4.437,25.6-7.424V481.707z M349.867,474.88v-34.133  c8.789-4.011,17.408-8.448,25.6-13.397V460.8h0.597C367.701,466.005,358.997,470.699,349.867,474.88z M418.133,425.984  c-7.851,8.448-16.384,16.213-25.6,23.381v-33.536c9.045-6.656,17.579-13.995,25.6-21.931V425.984z M435.2,404.992v-29.525  c0-0.171-0.085-0.256-0.085-0.341c13.312-16.469,24.405-34.731,32.853-54.443C464.213,351.488,452.693,380.16,435.2,404.992z   M256,443.051c-117.248,0-212.651-95.403-212.651-212.651S138.752,17.749,256,17.749S468.651,113.152,468.651,230.4  S373.248,443.051,256,443.051z"/>
<g>
	<path style="fill:#F9A825;" d="M435.2,404.992v-29.525c0-0.171-0.085-0.256-0.085-0.341c13.312-16.469,24.405-34.731,32.853-54.443   C464.213,351.488,452.693,380.16,435.2,404.992z"/>
	<path style="fill:#F9A825;" d="M418.133,393.899v32.085c-7.851,8.448-16.384,16.213-25.6,23.381v-33.536   C401.579,409.173,410.112,401.835,418.133,393.899z"/>
	<path style="fill:#F9A825;" d="M376.064,460.8c-8.363,5.205-17.067,9.899-26.197,14.08v-34.133   c8.789-4.011,17.408-8.448,25.6-13.397V460.8H376.064z"/>
	<path style="fill:#F9A825;" d="M332.8,447.573v34.133c-8.277,2.987-16.811,5.461-25.6,7.509v-34.219   C315.904,453.035,324.437,450.56,332.8,447.573z"/>
	<path style="fill:#F9A825;" d="M290.133,458.24v34.133c-8.363,1.28-16.896,2.048-25.6,2.389v-34.219   C273.152,460.288,281.771,459.52,290.133,458.24z"/>
	<path style="fill:#F9A825;" d="M247.467,460.544v34.219c-8.704-0.341-17.237-1.109-25.6-2.389V458.24   C230.229,459.52,238.848,460.288,247.467,460.544z"/>
	<path style="fill:#F9A825;" d="M204.8,454.997v34.219c-8.789-2.048-17.323-4.523-25.6-7.509v-34.133   C187.563,450.56,196.096,453.035,204.8,454.997z"/>
	<path style="fill:#F9A825;" d="M162.133,440.747v34.133c-9.131-4.181-17.835-8.875-26.197-14.08h0.597v-33.451   C144.725,432.299,153.344,436.736,162.133,440.747z"/>
	<path style="fill:#F9A825;" d="M119.467,415.829v33.536c-9.216-7.168-17.749-14.933-25.6-23.381v-32.085   C101.888,401.835,110.421,409.173,119.467,415.829z"/>
	<path style="fill:#F9A825;" d="M76.885,375.125c0,0.085-0.085,0.171-0.085,0.341v29.525   c-17.493-24.832-29.013-53.504-32.768-84.309C52.48,340.395,63.573,358.656,76.885,375.125z"/>
</g>
<path d="M256,53.163c-97.707,0-177.237,79.531-177.237,177.237S158.293,407.637,256,407.637S433.237,328.107,433.237,230.4  S353.707,53.163,256,53.163z M256,389.888c-87.979,0-159.488-71.509-159.488-159.488S168.021,70.912,256,70.912  S415.488,142.421,415.488,230.4S343.979,389.888,256,389.888z"/>
<path style="fill:#F9A825;" d="M256,70.912c-87.979,0-159.488,71.509-159.488,159.488S168.021,389.888,256,389.888  S415.488,318.379,415.488,230.4S343.979,70.912,256,70.912z M326.571,276.907c-1.963,23.211-27.563,40.96-62.037,44.032v12.544  c0,4.779-3.84,8.533-8.533,8.533c-4.693,0-8.533-3.755-8.533-8.533V321.28c-29.611-0.853-43.264-6.4-59.477-23.04  c-3.243-3.413-3.157-8.789,0.171-12.117c3.413-3.243,8.789-3.157,12.117,0.171c12.117,12.544,21.077,17.152,47.189,17.92v-65.877  c-40.533-4.352-58.539-27.136-58.197-48.981c0.341-22.784,20.395-46.08,58.197-49.493v-12.544c0-4.779,3.84-8.533,8.533-8.533  s8.533,3.755,8.533,8.533v12.288c29.013,1.28,48.213,8.789,59.989,23.637c2.987,3.669,2.304,9.045-1.365,11.947  c-3.669,2.987-9.045,2.304-11.947-1.365c-5.461-6.827-16.213-15.787-46.677-17.152v66.901  C324.864,237.312,327.424,267.691,326.571,276.907z"/>
<path d="M264.533,223.573v-66.901c30.464,1.365,41.216,10.325,46.677,17.152c2.901,3.669,8.277,4.352,11.947,1.365  c3.669-2.901,4.352-8.277,1.365-11.947c-11.776-14.848-30.976-22.357-59.989-23.637v-12.288c0-4.779-3.84-8.533-8.533-8.533  s-8.533,3.755-8.533,8.533v12.544c-37.803,3.413-57.856,26.709-58.197,49.493c-0.341,21.845,17.664,44.629,58.197,48.981v65.877  c-26.112-0.768-35.072-5.376-47.189-17.92c-3.328-3.328-8.704-3.413-12.117-0.171c-3.328,3.328-3.413,8.704-0.171,12.117  c16.213,16.64,29.867,22.187,59.477,23.04v12.203c0,4.779,3.84,8.533,8.533,8.533c4.693,0,8.533-3.755,8.533-8.533v-12.544  c34.475-3.072,60.075-20.821,62.037-44.032C327.424,267.691,324.864,237.312,264.533,223.573z M247.467,221.013  c-28.501-3.584-41.387-17.749-41.131-31.403c0.171-14.677,14.507-29.525,41.131-32.512V221.013z M309.589,275.456  c-1.024,12.459-18.091,25.515-45.056,28.245v-62.635C298.923,249.771,310.528,264.619,309.589,275.456z"/>
<g>
	<path style="fill:#F9A825;" d="M247.467,157.099v63.915c-28.501-3.584-41.387-17.749-41.131-31.403   C206.507,174.933,220.843,160.085,247.467,157.099z"/>
	<path style="fill:#F9A825;" d="M309.589,275.456c-1.024,12.459-18.091,25.515-45.056,28.245v-62.635   C298.923,249.771,310.528,264.619,309.589,275.456z"/>
</g>
<g>
</g>
<g>
</g>
<g>
</g>
<g>
</g>
<g>
</g>
<g>
</g>
<g>
</g>
<g>
</g>
<g>
</g>
<g>
</g>
<g>
</g>
<g>
</g>
<g>
</g>
<g>
</g>
<g>
</g>
</svg>